<?xml version="1.0" encoding="UTF-8" standalone="no"?> <svg id="Layer_1" data-name="Layer 1"
    xmlns="http://www.w3.org/2000/svg" viewBox="0 0 120 120">
    <defs>
        <style>
            .cls-1 {
                fill: #f9bc36;
            }

            .cls-2 {
                fill: #1e0a09;
            }

            .cls-3 {
                fill: #dd263d;
            }
        </style>
    </defs>
    <title>chinese new year icon 2</title>
    <circle class="cls-1" cx="58.48" cy="60.55" r="41.67" />
    <path class="cls-2"
        d="M58.48,103.72a43.18,43.18,0,1,1,43.17-43.17A43.22,43.22,0,0,1,58.48,103.72Zm0-83.35A40.18,40.18,0,1,0,98.65,60.55,40.22,40.22,0,0,0,58.48,20.37Z" />
    <circle class="cls-3" cx="58.48" cy="60.55" r="36.44" />
    <path class="cls-2"
        d="M58.48,98.49A37.95,37.95,0,1,1,96.42,60.55,38,38,0,0,1,58.48,98.49Zm0-72.89A34.95,34.95,0,1,0,93.42,60.55,35,35,0,0,0,58.48,25.6Z" />
    <path class="cls-1"
        d="M40.26,78.77A18.22,18.22,0,0,1,58.48,60.55a18.23,18.23,0,0,0,0-36.45,36.45,36.45,0,0,0,0,72.89A18.22,18.22,0,0,1,40.26,78.77Z" />
    <path class="cls-2"
        d="M58.48,98.49a37.95,37.95,0,0,1,0-75.89,19.73,19.73,0,0,1,0,39.45,16.72,16.72,0,0,0,0,33.44Zm0-72.89A34.95,34.95,0,0,0,44.33,92.5,19.72,19.72,0,0,1,58.48,59.05a16.73,16.73,0,0,0,0-33.45Z" />
    <circle class="cls-3" cx="58.4" cy="42.04" r="6.25" />
    <path class="cls-2"
        d="M58.4,49.8A7.76,7.76,0,1,1,66.15,42,7.76,7.76,0,0,1,58.4,49.8Zm0-12.51A4.76,4.76,0,1,0,63.15,42,4.75,4.75,0,0,0,58.4,37.29Z" />
    <circle class="cls-1" cx="58.4" cy="79.51" r="6.25" />
    <path class="cls-2"
        d="M58.4,87.27a7.76,7.76,0,1,1,7.75-7.76A7.76,7.76,0,0,1,58.4,87.27Zm0-12.51a4.76,4.76,0,1,0,4.75,4.75A4.75,4.75,0,0,0,58.4,74.76Z" />
</svg>
