<?xml version="1.0" encoding="UTF-8" standalone="no"?> <svg width="512" height="512" viewBox="0 0 512 512" fill="none"
    xmlns="http://www.w3.org/2000/svg">
    <path
        d="M32 152C32 143.163 39.1634 136 48 136H240C248.837 136 256 143.163 256 152V200C256 208.837 248.837 216 240 216H48C39.1635 216 32 208.837 32 200V152Z"
        fill="#E5AD1C" />
    <path
        d="M32 152C32 143.163 39.1634 136 48 136H216C220.418 136 224 139.582 224 144V200C224 204.418 220.418 208 216 208H48C39.1634 208 32 200.837 32 192V152Z"
        fill="#FFF730" />
    <path
        d="M32 232C32 223.163 39.1634 216 48 216H240C248.837 216 256 223.163 256 232V280C256 288.837 248.837 296 240 296H48C39.1635 296 32 288.837 32 280V232Z"
        fill="#E5AD1C" />
    <path
        d="M32 232C32 223.163 39.1634 216 48 216H104C108.418 216 112 219.582 112 224V280C112 284.418 108.418 288 104 288H48C39.1634 288 32 280.837 32 272V232Z"
        fill="#FFF730" />
    <path
        d="M32 312C32 303.163 39.1634 296 48 296H240C248.837 296 256 303.163 256 312V360C256 368.837 248.837 376 240 376H48C39.1635 376 32 368.837 32 360V312Z"
        fill="#E5AD1C" />
    <path
        d="M32 312C32 303.163 39.1634 296 48 296H104C108.418 296 112 299.582 112 304V360C112 364.418 108.418 368 104 368H48C39.1634 368 32 360.837 32 352V312Z"
        fill="#FFF730" />
    <path
        d="M128 208C128 203.582 131.582 200 136 200H429.104C430.975 200 432.787 200.656 434.225 201.854L477.121 237.601C478.945 239.121 480 241.373 480 243.747V368C480 372.418 476.418 376 472 376H136C131.582 376 128 372.418 128 368V208Z"
        fill="#009F10" />
    <path
        d="M128 208C128 203.582 131.582 200 136 200H432V232C432 236.418 435.582 240 440 240H468V356C468 360.418 464.418 364 460 364H128V208Z"
        fill="#5ED600" />
    <path
        d="M224 288C224 301.255 213.255 312 200 312C186.745 312 176 301.255 176 288C176 274.745 186.745 264 200 264C213.255 264 224 274.745 224 288Z"
        fill="#F8F8F8" />
    <path
        d="M432 288C432 301.255 421.255 312 408 312C394.745 312 384 301.255 384 288C384 274.745 394.745 264 408 264C421.255 264 432 274.745 432 288Z"
        fill="#F8F8F8" />
    <path fill-rule="evenodd" clip-rule="evenodd"
        d="M272 264C272 250.745 282.745 240 296 240H312C325.255 240 336 250.745 336 264V268C336 272.418 332.418 276 328 276C323.582 276 320 272.418 320 268V264C320 259.582 316.418 256 312 256H296C291.582 256 288 259.582 288 264V272C288 276.418 291.582 280 296 280H312C325.255 280 336 290.745 336 304V312C336 325.255 325.255 336 312 336H296C282.745 336 272 325.255 272 312V304C272 299.582 275.582 296 280 296C284.418 296 288 299.582 288 304V312C288 316.418 291.582 320 296 320H312C316.418 320 320 316.418 320 312V304C320 299.582 316.418 296 312 296H296C282.745 296 272 285.255 272 272V264Z"
        fill="#454545" />
    <path fill-rule="evenodd" clip-rule="evenodd"
        d="M304 224C308.418 224 312 227.582 312 232V344C312 348.418 308.418 352 304 352C299.582 352 296 348.418 296 344V232C296 227.582 299.582 224 304 224Z"
        fill="#454545" />
</svg>
