<?xml version="1.0" encoding="iso-8859-1"?>
<!-- Generator: Adobe Illustrator 19.0.0, SVG Export Plug-In . SVG Version: 6.00 Build 0)  -->
<svg version="1.1" id="Layer_1" xmlns="http://www.w3.org/2000/svg" xmlns:xlink="http://www.w3.org/1999/xlink" x="0px"
    y="0px" viewBox="0 0 512 512" style="enable-background:new 0 0 512 512;" xml:space="preserve">
    <g>
        <path style="fill:#FCBE42;"
            d="M250.776,465.785c-0.554,0-1.112-0.029-1.674-0.089l-43.354-4.59
		c-4.728-0.5-8.973-3.114-11.545-7.109c-2.572-3.994-3.193-8.938-1.689-13.443l33.921-101.595l-41.352-108.546
		c-3.083-8.093,0.985-17.15,9.087-20.23c8.099-3.081,17.166,0.985,20.251,9.078l43.343,113.775c1.287,3.382,1.366,7.104,0.22,10.537
		l-29.518,88.406l23.944,2.536c8.62,0.913,14.867,8.633,13.953,17.244C265.51,459.806,258.701,465.785,250.776,465.785z" />
        <path style="fill:#FCBE42;" d="M330.813,207.556c-1.673,0-3.375-0.269-5.048-0.837l-74.822-25.382
		c-2.063-0.699-3.958-1.821-5.564-3.293l-60.83-55.757c-6.386-5.854-6.813-15.773-0.953-22.153
		c5.859-6.382,15.787-6.808,22.176-0.953l58.393,53.526l71.693,24.321c8.208,2.784,12.602,11.688,9.814,19.887
		C343.453,203.443,337.351,207.556,330.813,207.556z" />
    </g>
    <path style="fill:#FFD066;" d="M134.985,470.47c-1.389,0-2.799-0.186-4.202-0.574l-33.482-9.273
	c-5.042-1.396-9.055-5.21-10.703-10.17c-1.648-4.96-0.714-10.415,2.491-14.545l74.354-95.828l20.559-116.305l-4.525-112.412
	c-0.286-7.113,4.26-13.525,11.071-15.617c6.811-2.094,14.178,0.662,17.94,6.708l48.413,77.789l58.963,33.847
	c7.515,4.315,10.107,13.899,5.788,21.406c-4.318,7.508-13.91,10.097-21.428,5.783l-62.387-35.813
	c-2.248-1.29-4.14-3.116-5.508-5.316l-19.097-30.686l2.203,54.741c0.045,1.124-0.031,2.249-0.227,3.356l-21.528,121.79
	c-0.443,2.506-1.49,4.867-3.051,6.879l-62.399,80.42l10.938,3.029c8.353,2.313,13.248,10.954,10.932,19.297
	C148.173,465.919,141.862,470.47,134.985,470.47z" />
    <path style="fill:#FF9C4A;" d="M220.762,57.224c-7.275,15.232-25.533,21.688-40.78,14.42c-15.247-7.268-21.709-25.507-14.434-40.739
	s25.533-21.688,40.78-14.42S228.037,41.993,220.762,57.224z" />
    <path style="fill:#F24E5E;" d="M443.306,476.872H68.694c-8.659,0-15.679-7.02-15.679-15.679l0,0c0-8.659,7.02-15.679,15.679-15.679
	h374.613c8.659,0,15.679,7.02,15.679,15.679l0,0C458.985,469.852,451.966,476.872,443.306,476.872z" />
    <path style="fill:#DD314B;" d="M443.306,445.514h-20c8.659,0,15.679,7.02,15.679,15.679s-7.02,15.679-15.679,15.679h20
	c8.659,0,15.679-7.02,15.679-15.679S451.966,445.514,443.306,445.514z" />
    <path style="fill:#7AC9E5;" d="M463.173,454.33c-20.716,0-20.716,20.678-41.431,20.678c-20.717,0-20.717-20.678-41.433-20.678
	c-20.717,0-20.717,20.678-41.434,20.678c-20.716,0-20.716-20.678-41.433-20.678c-20.714,0-20.714,20.678-41.428,20.678
	c-20.717,0-20.717-20.678-41.433-20.678c-20.717,0-20.717,20.678-41.434,20.678c-20.718,0-20.718-20.678-41.436-20.678
	c-20.717,0-20.717,20.678-41.434,20.678c-20.72,0-20.72-20.678-41.44-20.678c-17.445,0-34.891,14.658-39.969,19.291
	c-0.973,0.887-1.504,2.181-1.337,3.486c1.532,11.991,16.067,21.393,33.77,21.393h429.398c17.703,0,32.238-9.402,33.771-21.393
	c0.167-1.305-0.364-2.599-1.337-3.486C498.055,468.988,480.614,454.33,463.173,454.33z" />
    <g>
        <path style="fill:#41B6D6;" d="M236.014,475.004c4.012,0,7.241-0.783,9.999-2.036c-11.487-5.218-14.728-18.683-31.432-18.683
		c-4.012,0-7.241,0.783-10,2.036C216.068,461.538,219.309,475.004,236.014,475.004z" />
        <path style="fill:#41B6D6;" d="M318.874,475.004c4.012,0,7.241-0.783,10-2.036c-11.488-5.218-14.728-18.683-31.433-18.683
		c-4.012,0-7.241,0.783-9.999,2.036C298.929,461.539,302.17,475.004,318.874,475.004z" />
        <path style="fill:#41B6D6;" d="M401.742,475.004c4.012,0,7.241-0.783,10-2.036c-11.488-5.218-14.728-18.683-31.433-18.683
		c-4.012,0-7.241,0.783-10,2.036C381.796,461.538,385.037,475.004,401.742,475.004z" />
        <path style="fill:#41B6D6;" d="M503.135,473.618c-5.074-4.64-22.518-19.333-39.963-19.333c-3.633,0-6.62,0.647-9.203,1.698
		c13.382,3.998,25.149,13.962,29.165,17.635c0.971,0.888,1.501,2.18,1.335,3.485c-1.529,12.018-16.065,21.441-33.771,21.441h20
		c17.706,0,32.242-9.424,33.771-21.441C504.636,475.798,504.106,474.505,503.135,473.618z" />
        <path style="fill:#41B6D6;" d="M70.277,475.004c4.012,0,7.241-0.783,9.999-2.035c-11.49-5.217-14.731-18.684-31.439-18.684
		c-3.637,0-7.272,0.645-10.797,1.697C50.185,460.924,53.191,475.004,70.277,475.004z" />
        <path style="fill:#41B6D6;" d="M153.147,475.004c4.012,0,7.241-0.783,10-2.036c-11.489-5.218-14.729-18.683-31.435-18.683
		c-4.012,0-7.241,0.783-10,2.036C133.2,461.538,136.441,475.004,153.147,475.004z" />
    </g>
    <path style="fill:#68DD92;" d="M209.431,484.451l-32.852-15.074c-2.585-1.186-3.718-4.241-2.531-6.824l22.689-49.347
	c1.47-3.198,4.267-5.593,7.654-6.556l24.067-6.844l10.484,22.698c1.476,3.195,1.479,6.875,0.009,10.072l-22.689,49.347
	C215.074,484.505,212.016,485.637,209.431,484.451z" />
    <path style="fill:#57C17B;" d="M238.942,422.503l-10.484-22.698l-15.55,4.422L219,417.335c1.48,3.186,1.49,6.851,0.027,10.033
	l-22.583,49.116c-0.27,0.586-0.646,1.086-1.083,1.511l14.07,6.456c2.585,1.186,5.644,0.054,6.831-2.528l22.689-49.347
	C240.421,429.378,240.418,425.698,238.942,422.503z" />
    <path d="M176.756,78.405c5.277,2.515,10.849,3.705,16.34,3.705c14.229,0,27.909-8,34.435-21.664
	c4.383-9.177,4.926-19.508,1.53-29.093c-3.396-9.583-10.322-17.272-19.505-21.65c-18.952-9.03-41.729-0.977-50.775,17.958
	c-4.383,9.177-4.926,19.508-1.53,29.093C160.647,66.339,167.573,74.027,176.756,78.405z M172.316,34.127
	c3.956-8.282,12.247-13.13,20.875-13.13c3.33,0,6.71,0.723,9.91,2.248c5.565,2.652,9.764,7.312,11.821,13.118
	c2.057,5.804,1.728,12.062-0.927,17.619c-5.482,11.479-19.294,16.361-30.785,10.882c-5.565-2.652-9.764-7.312-11.821-13.118
	C169.333,45.942,169.662,39.684,172.316,34.127z" />
    <path d="M508.187,468.081c-21.006-19.182-38.479-21.252-45.017-21.252c-0.562,0-1.097,0.029-1.637,0.053
	c-4.332-5.512-11.008-8.874-18.224-8.874H354.5c-4.143,0-7.5,3.357-7.5,7.5s3.357,7.5,7.5,7.5h6.846
	c-2.714,2.022-4.979,4.28-7.054,6.352c-4.74,4.731-8.164,8.149-15.422,8.149c-7.251,0-10.674-3.417-15.41-8.146
	c-2.076-2.072-4.342-4.331-7.057-6.355h5.847c4.143,0,7.5-3.358,7.5-7.5s-3.357-7.5-7.5-7.5h-51.725
	c-3.705-6.05-10.039-10.177-17.324-10.958l-5.707-0.605c-0.137-2.423-0.7-4.829-1.744-7.088l-2.995-6.486l22.336-66.922
	c1.089-3.251,1.42-6.7,1.02-10.078l39.163-85.178c8.952,1.063,18.106-3.169,22.877-11.46c3.089-5.37,3.9-11.62,2.283-17.598
	c-0.672-2.485-1.75-4.786-3.143-6.865c1.164,0.18,2.34,0.279,3.521,0.279c9.937,0,18.763-6.32,21.961-15.728
	c1.994-5.864,1.582-12.153-1.159-17.707c-2.178-4.414-5.632-7.921-9.897-10.182l44.378-96.518c1.73-3.763,0.082-8.217-3.682-9.947
	c-3.764-1.731-8.218-0.082-9.947,3.682l-44.894,97.641l-20.03-6.796c-3.923-1.328-8.181,0.771-9.512,4.693s0.77,8.181,4.693,9.512
	l18.548,6.293l-6.872,14.945l-41.13-13.953l-10.999-6.315l-19.611-31.509l16.438,15.068c0.767,0.704,1.672,1.239,2.658,1.574
	l9.818,3.331c0.799,0.271,1.61,0.399,2.41,0.399c3.125,0,6.042-1.969,7.102-5.093c1.331-3.922-0.771-8.181-4.693-9.512l-8.323-2.824
	l-57.23-52.459c-0.115-0.106-0.238-0.199-0.358-0.296c-5.936-5.224-14.287-7.193-22.132-4.776
	c-10.062,3.088-16.791,12.581-16.363,23.083l4.487,111.613l-20.096,113.678l-19.261,24.825c-2.539,3.273-1.944,7.985,1.328,10.524
	c3.27,2.537,7.982,1.944,10.523-1.328l20.397-26.291c0.747-0.963,1.248-2.093,1.46-3.292l20.559-116.302
	c0.094-0.53,0.13-1.069,0.108-1.606l-4.52-112.427c-0.151-3.699,2.224-7.045,5.785-8.138c3.549-1.095,7.398,0.347,9.363,3.506
	l48.41,77.782c0.654,1.052,1.559,1.925,2.633,2.541l13.162,7.556c0.035,0.021,0.071,0.041,0.106,0.061l43.982,25.252
	c0.035,0.021,0.071,0.041,0.106,0.061l1.602,0.92c1.9,1.092,3.261,2.855,3.831,4.964c0.569,2.106,0.283,4.31-0.806,6.203
	c-2.252,3.916-7.277,5.267-11.195,3.017l-62.384-35.814c-1.164-0.667-2.157-1.628-2.873-2.776l-19.1-30.681
	c-1.8-2.89-5.321-4.207-8.572-3.204c-3.254,1.001-5.426,4.067-5.289,7.469l2.201,54.781c0.025,0.553-0.015,1.135-0.113,1.704
	l-21.532,121.805c-0.227,1.293-0.775,2.529-1.588,3.576l-62.399,80.422c-1.32,1.701-1.829,3.871-1.444,5.957H96.955l32.473-41.856
	c2.539-3.273,1.944-7.985-1.328-10.524c-3.274-2.538-7.983-1.945-10.523,1.328l-34.408,44.351c-1.57,2.022-2.788,4.294-3.612,6.701
	H68.692c-6.194,0-12.016,2.41-16.396,6.788c-0.657,0.658-1.254,1.361-1.823,2.085c-0.538-0.023-1.071-0.053-1.631-0.053
	c-19.594,0-38.013,14.859-45.01,21.236c-2.821,2.561-4.218,6.302-3.739,9.994C2.124,493.988,19.841,506,41.301,506H470.7
	c21.461,0,39.178-12.012,41.207-27.926C512.387,474.366,510.991,470.625,508.187,468.081z M338.163,188.252
	c0.966,1.958,1.111,4.175,0.409,6.242c-1.13,3.322-4.248,5.555-7.76,5.555c-0.712,0-1.418-0.12-2.113-0.307l6.727-14.63
	C336.584,185.897,337.529,186.964,338.163,188.252z M443.309,453.009c0.279,0,0.552,0.033,0.825,0.061
	c-2.677,2.007-4.919,4.24-6.973,6.29c-4.739,4.732-8.164,8.15-15.422,8.15c-7.251,0-10.674-3.417-15.41-8.146
	c-2.076-2.072-4.342-4.331-7.057-6.355H443.309z M210.429,476.657l-23.521-10.793c-0.032-0.015-0.064-0.03-0.096-0.044l-4.963-2.277
	l6.878-14.959c0.029-0.064,0.061-0.126,0.088-0.191l14.738-32.054c0.556-1.209,1.61-2.112,2.892-2.477l17.896-5.089l7.794,16.875
	c0.557,1.204,0.558,2.588,0.003,3.794l-5.994,13.036c-0.021,0.046-0.044,0.09-0.063,0.137l-5.462,11.88
	c-0.019,0.038-0.035,0.076-0.053,0.114L210.429,476.657z M170.182,453.009l-2.947,6.409c-0.976,2.122-1.325,4.418-1.069,6.68
	c-3.11-1.428-5.528-3.833-8.438-6.737c-2.075-2.071-4.341-4.329-7.054-6.352H170.182z M233.45,336.286l-20.385-53.512l5.556-31.431
	l31.646,83.082l-27.176,59.108l-7.697,2.189l18.162-54.389C234.104,339.689,234.067,337.905,233.45,336.286z M237.811,453.009
	h27.922c0.008,0,0.016,0.002,0.024,0.002c0.009,0,0.018-0.002,0.026-0.002h12.701c-2.712,2.022-4.977,4.28-7.051,6.351
	c-4.739,4.732-8.164,8.15-15.423,8.15c-7.251,0-10.673-3.416-15.41-8.144c-1.226-1.224-2.534-2.523-3.963-3.804L237.811,453.009z
	 M225.966,204.109c2.022,3.247,4.839,5.965,8.141,7.859l57.332,32.913l-32.392,70.45l-36.274-95.234l-0.907-22.575L225.966,204.109z
	 M141.173,432.451l-0.157-0.044l55.54-71.581c2.306-2.972,3.866-6.493,4.511-10.174l6.911-39.096l10.501,27.566l-20.826,62.368
	c-3.347,2.004-6.064,4.961-7.728,8.581l-12.845,27.937h-26.113C148.222,435.404,144.854,433.472,141.173,432.451z M68.692,453.009
	h44.056c-2.715,2.023-4.981,4.282-7.057,6.355c-4.736,4.729-8.159,8.146-15.41,8.146c-7.258,0-10.683-3.418-15.423-8.149
	c-2.061-2.057-4.311-4.297-7-6.309C68.134,453.023,68.412,453.009,68.692,453.009z M15.37,477.875
	c9.173-7.984,22.349-16.046,33.472-16.046c7.258,0,10.682,3.418,15.422,8.149c5.594,5.583,12.556,12.532,26.018,12.532
	c13.457,0,20.416-6.947,26.008-12.531c4.739-4.732,8.164-8.15,15.422-8.15c7.258,0,10.682,3.418,15.422,8.149
	c5.594,5.583,12.556,12.532,26.018,12.532c3.772,0,7.222-0.549,10.456-1.656L205.72,491H41.301
	C27.42,491,17.572,484.485,15.37,477.875z M470.7,491H217.384c2.425-1.249,4.468-3.281,5.693-5.944l6.929-15.071
	c5.592,5.581,12.55,12.525,26.004,12.525c13.465,0,20.426-6.95,26.02-12.534c4.736-4.729,8.159-8.146,15.41-8.146
	c7.258,0,10.683,3.418,15.422,8.15c5.592,5.583,12.551,12.531,26.008,12.531c13.462,0,20.424-6.948,26.017-12.532
	c4.74-4.731,8.164-8.149,15.422-8.149c7.259,0,10.684,3.419,15.423,8.15c5.592,5.583,12.552,12.531,26.008,12.531
	c13.464,0,20.426-6.95,26.019-12.534c4.736-4.729,8.159-8.146,15.41-8.146c11.138,0,24.296,8.055,33.465,16.046
	C494.442,484.477,484.589,491,470.7,491z" />
    <g>
    </g>
    <g>
    </g>
    <g>
    </g>
    <g>
    </g>
    <g>
    </g>
    <g>
    </g>
    <g>
    </g>
    <g>
    </g>
    <g>
    </g>
    <g>
    </g>
    <g>
    </g>
    <g>
    </g>
    <g>
    </g>
    <g>
    </g>
    <g>
    </g>
</svg>
