<?xml version="1.0" encoding="utf-8"?>
<!-- Generator: Adobe Illustrator 23.0.3, SVG Export Plug-In . SVG Version: 6.00 Build 0)  -->
<svg version="1.1" id="Capa_1" xmlns="http://www.w3.org/2000/svg" xmlns:xlink="http://www.w3.org/1999/xlink" x="0px" y="0px"
	 viewBox="0 0 512 512" style="enable-background:new 0 0 512 512;" xml:space="preserve">
<style type="text/css">
	.st0{fill:#FFE600;}
	.st1{fill:#212121;}
	.st2{fill:url(#SVGID_1_);}
	.st3{fill:url(#SVGID_2_);}
	.st4{fill:url(#SVGID_3_);}
	.st5{fill:url(#SVGID_4_);}
	.st6{fill:url(#SVGID_5_);}
	.st7{fill:url(#SVGID_6_);}
	.st8{fill:url(#SVGID_7_);}
	.st9{fill:url(#SVGID_8_);}
	.st10{fill:url(#SVGID_9_);}
	.st11{fill:url(#SVGID_10_);}
	.st12{fill:url(#SVGID_11_);}
	.st13{fill:url(#SVGID_12_);}
	.st14{fill:url(#SVGID_13_);}
	.st15{fill:url(#SVGID_14_);}
	.st16{fill:url(#SVGID_15_);}
	.st17{fill:url(#SVGID_16_);}
	.st18{fill:url(#SVGID_17_);}
	.st19{fill:url(#SVGID_18_);}
	.st20{fill:url(#SVGID_19_);}
	.st21{fill:url(#SVGID_20_);}
	.st22{fill:url(#SVGID_21_);}
	.st23{fill:url(#SVGID_22_);}
	.st24{fill:url(#SVGID_23_);}
	.st25{fill:url(#SVGID_24_);}
	.st26{fill:url(#SVGID_25_);}
	.st27{fill:#42D698;}
	.st28{fill:#F662B0;}
	.st29{fill:#7E71F5;}
	.st30{fill:#2CC9D0;}
	.st31{fill:#FF8B62;}
	.st32{fill:#323433;}
	.st33{fill:url(#SVGID_26_);}
</style>
<g>
	<path class="st0" d="M429.3,495.7H82.7c-36.6,0-66.4-29.7-66.4-66.4V82.7C16.3,46,46,16.3,82.7,16.3h346.7
		c36.6,0,66.4,29.7,66.4,66.4v346.7C495.7,466,466,495.7,429.3,495.7z"/>
	<path class="st1" d="M380.3,504.5c-4.9,0-8.8-4-8.8-8.8c0-4.9,4-8.8,8.8-8.8l50.3,0c4.9,0,8.8,4,8.8,8.8c0,4.9-4,8.8-8.8,8.8
		l-0.1,0H380.3z M330.2,504.5H280c-4.9,0-8.8-4-8.8-8.8c0-4.9,4-8.8,8.8-8.8h50.2c4.9,0,8.8,4,8.8,8.8
		C339,500.6,335.1,504.5,330.2,504.5z M229.9,504.5h-50.2c-4.9,0-8.8-4-8.8-8.8c0-4.9,4-8.8,8.8-8.8h50.2c4.9,0,8.8,4,8.8,8.8
		C238.7,500.6,234.8,504.5,229.9,504.5z M129.6,504.5h-48c-0.8,0-1.6,0-2.4,0c-4.9-0.2-8.7-4.2-8.6-9.1c0.2-4.8,4.1-8.6,8.8-8.6
		c0.1,0,0.2,0,0.3,0c0.6,0,1.2,0,1.8,0h48c4.9,0,8.8,4,8.8,8.8C138.4,500.6,134.4,504.5,129.6,504.5z M475.9,486.1
		c-2.3,0-4.6-0.9-6.3-2.7c-3.4-3.5-3.3-9.1,0.2-12.5c10.5-10.3,16.6-24,17-38.7c0.1-4.9,4.2-8.7,9.1-8.6c4.9,0.1,8.7,4.2,8.6,9.1
		c-0.6,19.3-8.5,37.4-22.4,50.8C480.4,485.2,478.2,486.1,475.9,486.1z M34.7,484.7c-2.3,0-4.6-0.9-6.4-2.7
		c-13.4-13.9-20.9-32.2-20.9-51.5c0-4.9,4-8.8,8.8-8.9c0,0,0,0,0,0c4.9,0,8.8,4,8.8,8.8c0,14.7,5.6,28.6,15.9,39.2
		c3.4,3.5,3.3,9.1-0.2,12.5C39.1,483.9,36.9,484.7,34.7,484.7z M495.7,391.1c-4.9,0-8.8-4-8.8-8.8v-50.2c0-4.9,4-8.8,8.8-8.8
		c4.9,0,8.8,4,8.8,8.8v50.2C504.5,387.2,500.6,391.1,495.7,391.1z M16.3,389.2c-4.9,0-8.8-4-8.8-8.8v-50.2c0-4.9,4-8.8,8.8-8.8
		s8.8,4,8.8,8.8v50.2C25.2,385.3,21.2,389.2,16.3,389.2z M495.7,290.8c-4.9,0-8.8-4-8.8-8.8v-50.2c0-4.9,4-8.8,8.8-8.8
		c4.9,0,8.8,4,8.8,8.8V282C504.5,286.9,500.6,290.8,495.7,290.8z M16.3,288.9c-4.9,0-8.8-4-8.8-8.8v-50.2c0-4.9,4-8.8,8.8-8.8
		s8.8,4,8.8,8.8v50.2C25.2,285,21.2,288.9,16.3,288.9z M495.7,190.5c-4.9,0-8.8-4-8.8-8.8v-50.2c0-4.9,4-8.8,8.8-8.8
		c4.9,0,8.8,4,8.8,8.8v50.2C504.5,186.6,500.6,190.5,495.7,190.5z M16.3,188.6c-4.9,0-8.8-4-8.8-8.8v-50.2c0-4.9,4-8.8,8.8-8.8
		s8.8,4,8.8,8.8v50.2C25.2,184.6,21.2,188.6,16.3,188.6z M495.7,90.2c-4.9,0-8.8-3.9-8.8-8.8c0-14.7-5.7-28.6-15.9-39.2
		c-3.4-3.5-3.3-9.1,0.2-12.5c3.5-3.4,9.1-3.3,12.5,0.2c13.5,13.9,20.9,32.1,20.9,51.4C504.5,86.3,500.6,90.2,495.7,90.2
		C495.7,90.2,495.7,90.2,495.7,90.2z M16.4,88.3c-0.1,0-0.2,0-0.3,0c-4.9-0.2-8.7-4.2-8.6-9.1C8.1,59.9,16.1,41.8,30,28.4
		c3.5-3.4,9.1-3.3,12.5,0.2c3.4,3.5,3.3,9.1-0.2,12.5c-10.6,10.2-16.6,24-17.1,38.7C25,84.5,21.1,88.3,16.4,88.3z M432.5,25.2
		c-0.1,0-0.2,0-0.3,0c-0.6,0-1.2,0-1.8,0h-48.1c-4.9,0-8.8-4-8.8-8.8s4-8.8,8.8-8.8h48.1c0.8,0,1.5,0,2.3,0c4.9,0.1,8.7,4.2,8.6,9.1
		C441.2,21.4,437.3,25.2,432.5,25.2z M332.2,25.2H282c-4.9,0-8.8-4-8.8-8.8s4-8.8,8.8-8.8h50.2c4.9,0,8.8,4,8.8,8.8
		S337.1,25.2,332.2,25.2z M231.9,25.2h-50.2c-4.9,0-8.8-4-8.8-8.8s4-8.8,8.8-8.8h50.2c4.9,0,8.8,4,8.8,8.8S236.8,25.2,231.9,25.2z
		 M131.6,25.2H81.5c-4.9,0-8.9-4-8.9-8.8s3.9-8.8,8.8-8.8h50.2c4.9,0,8.8,4,8.8,8.8S136.5,25.2,131.6,25.2z"/>
</g>
<path class="st1" d="M257.8,284.8c9.5,0.7,19,1.7,28.5-1c24.7-6.9,41.6-30.3,39.9-56c-1.6-24.6-21-46-44.9-49.7
	c-26.6-4.1-51.4,10.2-60.4,34.7c-6.7,18.4-6.7,18.4-26,18.4c-10.7,0-21.4,0.2-32.1,0c-12.6-0.3-18.5-7.7-16.6-20.2
	c9.6-61.2,63.5-106.7,126.1-106.6c62.7,0.2,116,45.9,125.3,107.3C409.2,289,351.4,357.5,273.2,359c-12.6,0.2-25.2,0.8-37.8,0.9
	c-6.8,0.1-8.7,2.8-6.9,9.4c2.6,9.9,4.5,20.1,6.9,30.1c0.6,2.7,1.7,5.4-0.9,7.3c-2.7,2.1-5,0-7.2-1.5
	c-36.8-25.9-73.6-51.9-110.5-77.7c-5.6-3.9-4.6-6.9,0.4-10.4c36.6-25.6,73-51.4,109.5-77.1c2.2-1.5,4.2-3.7,7.1-2.1
	c3.7,2.1,1.9,5.2,1.2,8.1c-2.2,9.7-3.9,19.5-6.6,29c-2.1,7.5,0.7,9.9,7.5,9.8C243.3,284.8,250.5,284.8,257.8,284.8z"/>
</svg>
